# xmcd CD database file
#
# Track frame offsets:
#	150
#	41995
#	85923
#	115688
#	146290
#	176188
#	213348
#	247948
#	278218
#
# Disc length: 4207 seconds
#
# Revision: 0
# Processed by: cddbd v1.5.2PL0 Copyright (c) Steve Scherf et al.
# Submitted via: CDex 1.70beta2
#
DISCID=7d106d09
DTITLE=Miguel Zenon - Ceremonial
DYEAR=2004
DGENRE=Jazz
TTITLE0=Leyenda
TTITLE1=Ceremonial
TTITLE2=Transfiguration
TTITLE3=Mega
TTITLE4=A Reminder of Us
TTITLE5=Morning Chant
TTITLE6=440
TTITLE7=Ya
TTITLE8=Great is Thy Wisdom
EXTD=YEAR: 2004
EXTT0=
EXTT1=
EXTT2=
EXTT3=
EXTT4=
EXTT5=
EXTT6=
EXTT7=
EXTT8=
PLAYORDER=
